<svg xmlns="http://www.w3.org/2000/svg" xmlns:xlink="http://www.w3.org/1999/xlink" contentStyleType="text/css" data-diagram-type="CLASS" height="1087px" preserveAspectRatio="none" style="width:1655px;height:1087px;background:#FFFFFF;" version="1.1" viewBox="0 0 1655 1087" width="1655px" zoomAndPan="magnify"><defs/><g><!--class Color--><g class="entity" data-entity="Color" data-source-line="5" data-uid="ent0002" id="entity_Color"><rect fill="#F1F1F1" height="58.5938" rx="2.5" ry="2.5" style="stroke:#181818;stroke-width:0.5;" width="187.6563" x="62.14" y="15.15"/><text fill="#000000" font-family="sans-serif" font-size="14" lengthAdjust="spacing" textLength="36.5518" x="137.6922" y="33.1451">Color</text><line style="stroke:#181818;stroke-width:0.5;" x1="63.14" x2="248.7963" y1="41.4469" y2="41.4469"/><text fill="#000000" font-family="sans-serif" font-size="14" lengthAdjust="spacing" textLength="175.6563" x="68.14" y="58.442">WHITE, BLACK, NOTHING</text><line style="stroke:#181818;stroke-width:0.5;" x1="63.14" x2="248.7963" y1="65.7438" y2="65.7438"/></g><!--class Coordinate--><g class="entity" data-entity="Coordinate" data-source-line="9" data-uid="ent0003" id="entity_Coordinate"><rect fill="#F1F1F1" height="74.8906" rx="2.5" ry="2.5" style="stroke:#181818;stroke-width:0.5;" width="82.9932" x="284.47" y="7"/><text fill="#000000" font-family="sans-serif" font-size="14" lengthAdjust="spacing" textLength="76.9932" x="287.47" y="24.9951">Coordinate</text><line style="stroke:#181818;stroke-width:0.5;" x1="285.47" x2="366.4632" y1="33.2969" y2="33.2969"/><ellipse cx="295.47" cy="46.9453" fill="none" rx="3" ry="3" style="stroke:#038048;stroke-width:1;"/><text fill="#000000" font-family="sans-serif" font-size="14" lengthAdjust="spacing" textLength="48.4736" x="304.47" y="50.292">int row</text><ellipse cx="295.47" cy="63.2422" fill="none" rx="3" ry="3" style="stroke:#038048;stroke-width:1;"/><text fill="#000000" font-family="sans-serif" font-size="14" lengthAdjust="spacing" textLength="42.8545" x="304.47" y="66.5889">int col</text><line style="stroke:#181818;stroke-width:0.5;" x1="285.47" x2="366.4632" y1="73.8906" y2="73.8906"/></g><!--class ChessType--><g class="entity" data-entity="ChessType" data-source-line="14" data-uid="ent0004" id="entity_ChessType"><rect fill="#F1F1F1" height="58.5938" rx="2.5" ry="2.5" style="stroke:#181818;stroke-width:0.5;" width="297.9404" x="7" y="159.19"/><text fill="#000000" font-family="sans-serif" font-size="14" lengthAdjust="spacing" textLength="76.1865" x="117.877" y="177.1851">ChessType</text><line style="stroke:#181818;stroke-width:0.5;" x1="8" x2="303.9404" y1="185.4869" y2="185.4869"/><text fill="#000000" font-family="sans-serif" font-size="14" lengthAdjust="spacing" textLength="285.9404" x="13" y="202.482">Pawn, Knight, Bishop, Rook, Queen, King</text><line style="stroke:#181818;stroke-width:0.5;" x1="8" x2="303.9404" y1="209.7838" y2="209.7838"/></g><!--class Square--><g class="entity" data-entity="Square" data-source-line="18" data-uid="ent0005" id="entity_Square"><rect fill="#F1F1F1" height="172.6719" rx="2.5" ry="2.5" style="stroke:#181818;stroke-width:0.5;" width="240.6211" x="486.66" y="707.43"/><text fill="#000000" font-family="sans-serif" font-size="14" lengthAdjust="spacing" textLength="49.5947" x="582.1732" y="725.4251">Square</text><line style="stroke:#181818;stroke-width:0.5;" x1="487.66" x2="726.2811" y1="733.7269" y2="733.7269"/><rect fill="none" height="6" style="stroke:#C82930;stroke-width:1;" width="6" x="494.66" y="744.3753"/><text fill="#000000" font-family="sans-serif" font-size="14" lengthAdjust="spacing" textLength="156.3584" x="506.66" y="750.722">Coordinate coordinate</text><rect fill="none" height="6" style="stroke:#C82930;stroke-width:1;" width="6" x="494.66" y="760.6722"/><text fill="#000000" font-family="sans-serif" font-size="14" lengthAdjust="spacing" textLength="75.4756" x="506.66" y="767.0189">Color color</text><rect fill="none" height="6" style="stroke:#C82930;stroke-width:1;" width="6" x="494.66" y="776.9691"/><text fill="#000000" font-family="sans-serif" font-size="14" lengthAdjust="spacing" textLength="184.6729" x="506.66" y="783.3157">unique_ptr&lt;Chess&gt; chess</text><rect fill="none" height="6" style="stroke:#C82930;stroke-width:1;" width="6" x="494.66" y="793.2659"/><text fill="#000000" font-family="sans-serif" font-size="14" lengthAdjust="spacing" textLength="108.3701" x="506.66" y="799.6126">TextDisplay *td</text><rect fill="none" height="6" style="stroke:#C82930;stroke-width:1;" width="6" x="494.66" y="809.5628"/><text fill="#000000" font-family="sans-serif" font-size="14" lengthAdjust="spacing" textLength="123.7715" x="506.66" y="815.9095">GraphDisplay *gd</text><line style="stroke:#181818;stroke-width:0.5;" x1="487.66" x2="726.2811" y1="823.2113" y2="823.2113"/><rect fill="#F24D5C" height="6" style="stroke:#C82930;stroke-width:1;" width="6" x="494.66" y="833.8597"/><text fill="#000000" font-family="sans-serif" font-size="14" lengthAdjust="spacing" textLength="116.9287" x="506.66" y="840.2064">notifyDisplayer()</text><ellipse cx="497.66" cy="853.1566" fill="#84BE84" rx="3" ry="3" style="stroke:#038048;stroke-width:1;"/><text fill="#000000" font-family="sans-serif" font-size="14" lengthAdjust="spacing" textLength="214.6211" x="506.66" y="856.5032">setChess(unique_ptr&lt;Chess&gt;)</text><ellipse cx="497.66" cy="869.4534" fill="#84BE84" rx="3" ry="3" style="stroke:#038048;stroke-width:1;"/><text fill="#000000" font-family="sans-serif" font-size="14" lengthAdjust="spacing" textLength="106.2441" x="506.66" y="872.8001">removeChess()</text></g><!--class TextDisplay--><g class="entity" data-entity="TextDisplay" data-source-line="28" data-uid="ent0006" id="entity_TextDisplay"><rect fill="#F1F1F1" height="91.1875" rx="2.5" ry="2.5" style="stroke:#181818;stroke-width:0.5;" width="257.376" x="557.28" y="973.4"/><text fill="#000000" font-family="sans-serif" font-size="14" lengthAdjust="spacing" textLength="82.5439" x="644.696" y="991.3951">TextDisplay</text><line style="stroke:#181818;stroke-width:0.5;" x1="558.28" x2="813.656" y1="999.6969" y2="999.6969"/><rect fill="none" height="6" style="stroke:#C82930;stroke-width:1;" width="6" x="565.28" y="1010.3453"/><text fill="#000000" font-family="sans-serif" font-size="14" lengthAdjust="spacing" textLength="231.376" x="577.28" y="1016.692">vector&lt;vector&lt;char&gt;&gt; charGrid</text><line style="stroke:#181818;stroke-width:0.5;" x1="558.28" x2="813.656" y1="1023.9938" y2="1023.9938"/><ellipse cx="568.28" cy="1037.6422" fill="#84BE84" rx="3" ry="3" style="stroke:#038048;stroke-width:1;"/><text fill="#000000" font-family="sans-serif" font-size="14" lengthAdjust="spacing" textLength="158.6484" x="577.28" y="1040.9889">void notified(Square&amp;)</text><ellipse cx="568.28" cy="1053.9391" fill="#84BE84" rx="3" ry="3" style="stroke:#038048;stroke-width:1;"/><text fill="#000000" font-family="sans-serif" font-size="14" lengthAdjust="spacing" textLength="119.2871" x="577.28" y="1057.2857">void printBoard()</text></g><!--class GraphDisplay--><g class="entity" data-entity="GraphDisplay" data-source-line="29" data-uid="ent0008" id="entity_GraphDisplay"><rect fill="#F1F1F1" height="91.1875" rx="2.5" ry="2.5" style="stroke:#181818;stroke-width:0.5;" width="215.7793" x="306.08" y="973.4"/><text fill="#000000" font-family="sans-serif" font-size="14" lengthAdjust="spacing" textLength="94.5479" x="366.6957" y="991.3951">GraphDisplay</text><line style="stroke:#181818;stroke-width:0.5;" x1="307.08" x2="520.8593" y1="999.6969" y2="999.6969"/><rect fill="none" height="6" style="stroke:#C82930;stroke-width:1;" width="6" x="314.08" y="1010.3453"/><text fill="#000000" font-family="sans-serif" font-size="14" lengthAdjust="spacing" textLength="188.9932" x="326.08" y="1016.692">const size_t WINDOW_SIZE</text><line style="stroke:#181818;stroke-width:0.5;" x1="307.08" x2="520.8593" y1="1023.9938" y2="1023.9938"/><rect fill="#F24D5C" height="6" style="stroke:#C82930;stroke-width:1;" width="6" x="314.08" y="1034.6422"/><text fill="#000000" font-family="sans-serif" font-size="14" lengthAdjust="spacing" textLength="189.7793" x="326.08" y="1040.9889">void drawSquare(Square&amp;)</text><ellipse cx="317.08" cy="1053.9391" fill="#84BE84" rx="3" ry="3" style="stroke:#038048;stroke-width:1;"/><text fill="#000000" font-family="sans-serif" font-size="14" lengthAdjust="spacing" textLength="158.6484" x="326.08" y="1057.2857">void notified(Square&amp;)</text></g><!--class Chess--><g class="entity" data-entity="Chess" data-source-line="30" data-uid="ent0010" id="entity_Chess"><rect fill="#F1F1F1" height="123.7813" rx="2.5" ry="2.5" style="stroke:#181818;stroke-width:0.5;" width="685.6543" x="850.14" y="957.1"/><text fill="#000000" font-family="sans-serif" font-size="14" font-style="italic" lengthAdjust="spacing" textLength="41.8496" x="1172.0423" y="975.0951">Chess</text><line style="stroke:#181818;stroke-width:0.5;" x1="851.14" x2="1534.7943" y1="983.3969" y2="983.3969"/><rect fill="none" height="6" style="stroke:#C82930;stroke-width:1;" width="6" x="858.14" y="994.0453"/><text fill="#000000" font-family="sans-serif" font-size="14" lengthAdjust="spacing" textLength="75.4756" x="870.14" y="1000.392">Color color</text><rect fill="none" height="6" style="stroke:#C82930;stroke-width:1;" width="6" x="858.14" y="1010.3422"/><text fill="#000000" font-family="sans-serif" font-size="14" lengthAdjust="spacing" textLength="111.9111" x="870.14" y="1016.6889">ChessType type</text><line style="stroke:#181818;stroke-width:0.5;" x1="851.14" x2="1534.7943" y1="1023.9906" y2="1023.9906"/><ellipse cx="861.14" cy="1037.6391" fill="#84BE84" rx="3" ry="3" style="stroke:#038048;stroke-width:1;"/><text fill="#000000" font-family="sans-serif" font-size="14" lengthAdjust="spacing" textLength="659.6543" x="870.14" y="1040.9857">virtual bool isValidMove(const Board &amp;theBoard, Coordinate begin, Coordinate end) const = 0</text><ellipse cx="861.14" cy="1053.9359" fill="#84BE84" rx="3" ry="3" style="stroke:#038048;stroke-width:1;"/><text fill="#000000" font-family="sans-serif" font-size="14" lengthAdjust="spacing" textLength="511.4443" x="870.14" y="1057.2826">vietual bool isCheck(const Board &amp;theBoard), Coordinate posi) const = 0</text><ellipse cx="861.14" cy="1070.2328" fill="#84BE84" rx="3" ry="3" style="stroke:#038048;stroke-width:1;"/><text fill="#000000" font-family="sans-serif" font-size="14" lengthAdjust="spacing" textLength="539.4443" x="870.14" y="1073.5795">virtual bool isCheckmate(const Board &amp;theBoard, Coordinate posi) const = 0</text></g><!--class Pawn--><g class="entity" data-entity="Pawn" data-source-line="41" data-uid="ent0012" id="entity_Pawn"><rect fill="#F1F1F1" height="91.1875" rx="2.5" ry="2.5" style="stroke:#181818;stroke-width:0.5;" width="175.9941" x="1232.97" y="748.17"/><text fill="#000000" font-family="sans-serif" font-size="14" lengthAdjust="spacing" textLength="37.3447" x="1302.2947" y="766.1651">Pawn</text><line style="stroke:#181818;stroke-width:0.5;" x1="1233.97" x2="1407.9641" y1="774.4669" y2="774.4669"/><rect fill="none" height="6" style="stroke:#C82930;stroke-width:1;" width="6" x="1240.97" y="785.1153"/><text fill="#000000" font-family="sans-serif" font-size="14" lengthAdjust="spacing" textLength="91.9707" x="1252.97" y="791.462">bool isMoved</text><rect fill="none" height="6" style="stroke:#C82930;stroke-width:1;" width="6" x="1240.97" y="801.4122"/><text fill="#000000" font-family="sans-serif" font-size="14" lengthAdjust="spacing" textLength="149.9941" x="1252.97" y="807.7589">bool canBeEnPassant</text><line style="stroke:#181818;stroke-width:0.5;" x1="1233.97" x2="1407.9641" y1="815.0606" y2="815.0606"/><ellipse cx="1243.97" cy="828.7091" fill="#84BE84" rx="3" ry="3" style="stroke:#038048;stroke-width:1;"/><text fill="#000000" font-family="sans-serif" font-size="14" lengthAdjust="spacing" textLength="94.3291" x="1252.97" y="832.0557">void update()</text></g><!--class Rook--><g class="entity" data-entity="Rook" data-source-line="51" data-uid="ent0014" id="entity_Rook"><rect fill="#F1F1F1" height="58.5938" rx="2.5" ry="2.5" style="stroke:#181818;stroke-width:0.5;" width="117.9707" x="1443.98" y="764.47"/><text fill="#000000" font-family="sans-serif" font-size="14" lengthAdjust="spacing" textLength="34.9658" x="1485.4824" y="782.4651">Rook</text><line style="stroke:#181818;stroke-width:0.5;" x1="1444.98" x2="1560.9507" y1="790.7669" y2="790.7669"/><rect fill="none" height="6" style="stroke:#C82930;stroke-width:1;" width="6" x="1451.98" y="801.4153"/><text fill="#000000" font-family="sans-serif" font-size="14" lengthAdjust="spacing" textLength="91.9707" x="1463.98" y="807.762">bool isMoved</text><line style="stroke:#181818;stroke-width:0.5;" x1="1444.98" x2="1560.9507" y1="815.0638" y2="815.0638"/></g><!--class Knight--><g class="entity" data-entity="Knight" data-source-line="59" data-uid="ent0016" id="entity_Knight"><rect fill="#F1F1F1" height="42.2969" rx="2.5" ry="2.5" style="stroke:#181818;stroke-width:0.5;" width="51.1924" x="1597.37" y="772.61"/><text fill="#000000" font-family="sans-serif" font-size="14" lengthAdjust="spacing" textLength="45.1924" x="1600.37" y="790.6051">Knight</text><line style="stroke:#181818;stroke-width:0.5;" x1="1598.37" x2="1647.5624" y1="798.9069" y2="798.9069"/><line style="stroke:#181818;stroke-width:0.5;" x1="1598.37" x2="1647.5624" y1="806.9069" y2="806.9069"/></g><!--class Bishop--><g class="entity" data-entity="Bishop" data-source-line="66" data-uid="ent0018" id="entity_Bishop"><rect fill="#F1F1F1" height="42.2969" rx="2.5" ry="2.5" style="stroke:#181818;stroke-width:0.5;" width="53.1133" x="904.41" y="772.61"/><text fill="#000000" font-family="sans-serif" font-size="14" lengthAdjust="spacing" textLength="47.1133" x="907.41" y="790.6051">Bishop</text><line style="stroke:#181818;stroke-width:0.5;" x1="905.41" x2="956.5233" y1="798.9069" y2="798.9069"/><line style="stroke:#181818;stroke-width:0.5;" x1="905.41" x2="956.5233" y1="806.9069" y2="806.9069"/></g><!--class Queen--><g class="entity" data-entity="Queen" data-source-line="73" data-uid="ent0020" id="entity_Queen"><rect fill="#F1F1F1" height="42.2969" rx="2.5" ry="2.5" style="stroke:#181818;stroke-width:0.5;" width="51.9922" x="992.97" y="772.61"/><text fill="#000000" font-family="sans-serif" font-size="14" lengthAdjust="spacing" textLength="45.9922" x="995.97" y="790.6051">Queen</text><line style="stroke:#181818;stroke-width:0.5;" x1="993.97" x2="1043.9622" y1="798.9069" y2="798.9069"/><line style="stroke:#181818;stroke-width:0.5;" x1="993.97" x2="1043.9622" y1="806.9069" y2="806.9069"/></g><!--class King--><g class="entity" data-entity="King" data-source-line="80" data-uid="ent0022" id="entity_King"><rect fill="#F1F1F1" height="58.5938" rx="2.5" ry="2.5" style="stroke:#181818;stroke-width:0.5;" width="117.9707" x="1079.98" y="764.47"/><text fill="#000000" font-family="sans-serif" font-size="14" lengthAdjust="spacing" textLength="30.8301" x="1123.5503" y="782.4651">King</text><line style="stroke:#181818;stroke-width:0.5;" x1="1080.98" x2="1196.9507" y1="790.7669" y2="790.7669"/><rect fill="none" height="6" style="stroke:#C82930;stroke-width:1;" width="6" x="1087.98" y="801.4153"/><text fill="#000000" font-family="sans-serif" font-size="14" lengthAdjust="spacing" textLength="91.9707" x="1099.98" y="807.762">bool isMoved</text><line style="stroke:#181818;stroke-width:0.5;" x1="1080.98" x2="1196.9507" y1="815.0638" y2="815.0638"/></g><!--class Board--><g class="entity" data-entity="Board" data-source-line="89" data-uid="ent0024" id="entity_Board"><rect fill="#F1F1F1" height="319.3438" rx="2.5" ry="2.5" style="stroke:#181818;stroke-width:0.5;" width="389.542" x="412.2" y="311.08"/><text fill="#000000" font-family="sans-serif" font-size="14" lengthAdjust="spacing" textLength="41.3916" x="586.2752" y="329.0751">Board</text><line style="stroke:#181818;stroke-width:0.5;" x1="413.2" x2="800.742" y1="337.3769" y2="337.3769"/><rect fill="none" height="6" style="stroke:#C82930;stroke-width:1;" width="6" x="420.2" y="348.0253"/><text fill="#000000" font-family="sans-serif" font-size="14" lengthAdjust="spacing" textLength="217.1982" x="432.2" y="354.372">vector&lt;vector&lt;Square&gt;&gt; grid</text><rect fill="none" height="6" style="stroke:#C82930;stroke-width:1;" width="6" x="420.2" y="364.3222"/><text fill="#000000" font-family="sans-serif" font-size="14" lengthAdjust="spacing" textLength="199.9717" x="432.2" y="370.6689">unique_ptr&lt;TextDisplay&gt; td</text><rect fill="none" height="6" style="stroke:#C82930;stroke-width:1;" width="6" x="420.2" y="380.6191"/><text fill="#000000" font-family="sans-serif" font-size="14" lengthAdjust="spacing" textLength="215.373" x="432.2" y="386.9657">unique_ptr&lt;GraphDisplay&gt; gd</text><rect fill="none" height="6" style="stroke:#C82930;stroke-width:1;" width="6" x="420.2" y="396.9159"/><text fill="#000000" font-family="sans-serif" font-size="14" lengthAdjust="spacing" textLength="135.625" x="432.2" y="403.2626">Color currentPlayer</text><rect fill="none" height="6" style="stroke:#C82930;stroke-width:1;" width="6" x="420.2" y="413.2128"/><text fill="#000000" font-family="sans-serif" font-size="14" lengthAdjust="spacing" textLength="223.0293" x="432.2" y="419.5595">Square *lastWhiteMovedSquare</text><rect fill="none" height="6" style="stroke:#C82930;stroke-width:1;" width="6" x="420.2" y="429.5097"/><text fill="#000000" font-family="sans-serif" font-size="14" lengthAdjust="spacing" textLength="220.1992" x="432.2" y="435.8564">Square *lastBlackMovedSquare</text><line style="stroke:#181818;stroke-width:0.5;" x1="413.2" x2="800.742" y1="443.1581" y2="443.1581"/><rect fill="#F24D5C" height="6" style="stroke:#C82930;stroke-width:1;" width="6" x="420.2" y="453.8066"/><text fill="#000000" font-family="sans-serif" font-size="14" lengthAdjust="spacing" textLength="133.2598" x="432.2" y="460.1532">void switchPlayer()</text><rect fill="#F24D5C" height="6" style="stroke:#C82930;stroke-width:1;" width="6" x="420.2" y="470.1034"/><text fill="#000000" font-family="sans-serif" font-size="14" lengthAdjust="spacing" textLength="165.2041" x="432.2" y="476.4501">bool checkDraw() const</text><rect fill="#F24D5C" height="6" style="stroke:#C82930;stroke-width:1;" width="6" x="420.2" y="486.4003"/><text fill="#000000" font-family="sans-serif" font-size="14" lengthAdjust="spacing" textLength="136.1787" x="432.2" y="492.747">void updateChess()</text><ellipse cx="423.2" cy="505.6972" fill="#84BE84" rx="3" ry="3" style="stroke:#038048;stroke-width:1;"/><text fill="#000000" font-family="sans-serif" font-size="14" lengthAdjust="spacing" textLength="124.0313" x="432.2" y="509.0439">void initSquares()</text><ellipse cx="423.2" cy="521.9941" fill="#84BE84" rx="3" ry="3" style="stroke:#038048;stroke-width:1;"/><text fill="#000000" font-family="sans-serif" font-size="14" lengthAdjust="spacing" textLength="286.7676" x="432.2" y="525.3407">void placeChess(Coordinate, char, Color)</text><ellipse cx="423.2" cy="538.2909" fill="#84BE84" rx="3" ry="3" style="stroke:#038048;stroke-width:1;"/><text fill="#000000" font-family="sans-serif" font-size="14" lengthAdjust="spacing" textLength="217.3145" x="432.2" y="541.6376">void removeChess(Coordinate)</text><ellipse cx="423.2" cy="554.5878" fill="#84BE84" rx="3" ry="3" style="stroke:#038048;stroke-width:1;"/><text fill="#000000" font-family="sans-serif" font-size="14" lengthAdjust="spacing" textLength="264.1885" x="432.2" y="557.9345">void initChessesWithDefaultArrange()</text><ellipse cx="423.2" cy="570.8847" fill="#84BE84" rx="3" ry="3" style="stroke:#038048;stroke-width:1;"/><text fill="#000000" font-family="sans-serif" font-size="14" lengthAdjust="spacing" textLength="132.0361" x="432.2" y="574.2314">bool isValidSetup()</text><ellipse cx="423.2" cy="587.1816" fill="#84BE84" rx="3" ry="3" style="stroke:#038048;stroke-width:1;"/><text fill="#000000" font-family="sans-serif" font-size="14" lengthAdjust="spacing" textLength="363.542" x="432.2" y="590.5282">bool moveChess(Coordinate begin, Coordinate end)</text><ellipse cx="423.2" cy="603.4784" fill="#84BE84" rx="3" ry="3" style="stroke:#038048;stroke-width:1;"/><text fill="#000000" font-family="sans-serif" font-size="14" lengthAdjust="spacing" textLength="141.9004" x="432.2" y="606.8251">bool isCheck() const</text><ellipse cx="423.2" cy="619.7753" fill="#84BE84" rx="3" ry="3" style="stroke:#038048;stroke-width:1;"/><text fill="#000000" font-family="sans-serif" font-size="14" lengthAdjust="spacing" textLength="178.2197" x="432.2" y="623.122">bool isCheckmate() const</text></g><!--class Bot--><g class="entity" data-entity="Bot" data-source-line="126" data-uid="ent0028" id="entity_Bot"><rect fill="#F1F1F1" height="91.1875" rx="2.5" ry="2.5" style="stroke:#181818;stroke-width:0.5;" width="231.2217" x="491.36" y="142.9"/><text fill="#000000" font-family="sans-serif" font-size="14" font-style="italic" lengthAdjust="spacing" textLength="23.6592" x="595.1413" y="160.8951">Bot</text><line style="stroke:#181818;stroke-width:0.5;" x1="492.36" x2="721.5817" y1="169.1969" y2="169.1969"/><rect fill="none" height="6" style="stroke:#C82930;stroke-width:1;" width="6" x="499.36" y="179.8453"/><text fill="#000000" font-family="sans-serif" font-size="14" lengthAdjust="spacing" textLength="117.209" x="511.36" y="186.192">Board* theBoard</text><rect fill="none" height="6" style="stroke:#C82930;stroke-width:1;" width="6" x="499.36" y="196.1422"/><text fill="#000000" font-family="sans-serif" font-size="14" lengthAdjust="spacing" textLength="75.4756" x="511.36" y="202.4889">Color color</text><line style="stroke:#181818;stroke-width:0.5;" x1="492.36" x2="721.5817" y1="209.7906" y2="209.7906"/><ellipse cx="502.36" cy="223.4391" fill="#84BE84" rx="3" ry="3" style="stroke:#038048;stroke-width:1;"/><text fill="#000000" font-family="sans-serif" font-size="14" lengthAdjust="spacing" textLength="205.2217" x="511.36" y="226.7857">virtual void move() const = 0</text></g><!--class BotLevel1--><g class="entity" data-entity="BotLevel1" data-source-line="133" data-uid="ent0030" id="entity_BotLevel1"><rect fill="#F1F1F1" height="42.2969" rx="2.5" ry="2.5" style="stroke:#181818;stroke-width:0.5;" width="75.7676" x="402.09" y="23.3"/><text fill="#000000" font-family="sans-serif" font-size="14" lengthAdjust="spacing" textLength="69.7676" x="405.09" y="41.2951">BotLevel1</text><line style="stroke:#181818;stroke-width:0.5;" x1="403.09" x2="476.8576" y1="49.5969" y2="49.5969"/><line style="stroke:#181818;stroke-width:0.5;" x1="403.09" x2="476.8576" y1="57.5969" y2="57.5969"/></g><!--class BotLevel2--><g class="entity" data-entity="BotLevel2" data-source-line="138" data-uid="ent0032" id="entity_BotLevel2"><rect fill="#F1F1F1" height="42.2969" rx="2.5" ry="2.5" style="stroke:#181818;stroke-width:0.5;" width="75.7676" x="513.09" y="23.3"/><text fill="#000000" font-family="sans-serif" font-size="14" lengthAdjust="spacing" textLength="69.7676" x="516.09" y="41.2951">BotLevel2</text><line style="stroke:#181818;stroke-width:0.5;" x1="514.09" x2="587.8576" y1="49.5969" y2="49.5969"/><line style="stroke:#181818;stroke-width:0.5;" x1="514.09" x2="587.8576" y1="57.5969" y2="57.5969"/></g><!--class BotLevel3--><g class="entity" data-entity="BotLevel3" data-source-line="143" data-uid="ent0034" id="entity_BotLevel3"><rect fill="#F1F1F1" height="42.2969" rx="2.5" ry="2.5" style="stroke:#181818;stroke-width:0.5;" width="75.7676" x="624.09" y="23.3"/><text fill="#000000" font-family="sans-serif" font-size="14" lengthAdjust="spacing" textLength="69.7676" x="627.09" y="41.2951">BotLevel3</text><line style="stroke:#181818;stroke-width:0.5;" x1="625.09" x2="698.8576" y1="49.5969" y2="49.5969"/><line style="stroke:#181818;stroke-width:0.5;" x1="625.09" x2="698.8576" y1="57.5969" y2="57.5969"/></g><!--class BotLevel4--><g class="entity" data-entity="BotLevel4" data-source-line="148" data-uid="ent0036" id="entity_BotLevel4"><rect fill="#F1F1F1" height="42.2969" rx="2.5" ry="2.5" style="stroke:#181818;stroke-width:0.5;" width="75.7676" x="735.09" y="23.3"/><text fill="#000000" font-family="sans-serif" font-size="14" lengthAdjust="spacing" textLength="69.7676" x="738.09" y="41.2951">BotLevel4</text><line style="stroke:#181818;stroke-width:0.5;" x1="736.09" x2="809.8576" y1="49.5969" y2="49.5969"/><line style="stroke:#181818;stroke-width:0.5;" x1="736.09" x2="809.8576" y1="57.5969" y2="57.5969"/></g><!--link Square to TextDisplay--><g class="link" data-entity-1="Square" data-entity-2="TextDisplay" data-source-line="28" data-uid="lnk7" id="link_Square_TextDisplay"><path codeLine="28" d="M595.42,880.45 C595.95,896.34 598.36,912.51 603.97,927.1 C610.45,943.96 617.6573,955.1792 629.7473,968.6192" fill="none" id="Square-to-TextDisplay" style="stroke:#181818;stroke-width:1;"/><polygon fill="#181818" points="633.76,973.08,630.7148,963.7137,630.4161,969.3627,624.7671,969.064,633.76,973.08" style="stroke:#181818;stroke-width:1;"/><text fill="#000000" font-family="sans-serif" font-size="13" lengthAdjust="spacing" textLength="90.7461" x="604.97" y="923.1669">td &#171;observer&#187;</text></g><!--link Square to GraphDisplay--><g class="link" data-entity-1="Square" data-entity-2="GraphDisplay" data-source-line="29" data-uid="lnk9" id="link_Square_GraphDisplay"><path codeLine="29" d="M523.37,880.44 C514.31,890.31 505.34,900.33 496.97,910.1 C479.74,930.19 465.3101,948.5676 450.4701,968.2676" fill="none" id="Square-to-GraphDisplay" style="stroke:#181818;stroke-width:1;"/><polygon fill="#181818" points="446.86,973.06,455.4701,968.2781,449.8684,969.0663,449.0802,963.4647,446.86,973.06" style="stroke:#181818;stroke-width:1;"/><text fill="#000000" font-family="sans-serif" font-size="13" lengthAdjust="spacing" textLength="93.9009" x="497.97" y="923.1669">gd &#171;observer&#187;</text></g><!--reverse link Square to Chess--><g class="link" data-entity-1="Square" data-entity-2="Chess" data-source-line="30" data-uid="lnk11" id="link_Square_Chess"><path codeLine="30" d="M738.1422,871.5483 C748.0122,876.5083 747.22,875.84 756.97,880.1 C823.81,909.29 898.83,935.29 967.55,956.63" fill="none" id="Square-backto-Chess" style="stroke:#181818;stroke-width:1;"/><polygon fill="#181818" points="727.42,866.16,730.985,872.4282,738.1422,871.5483,734.5772,865.2801,727.42,866.16" style="stroke:#181818;stroke-width:1;"/><text fill="#000000" font-family="sans-serif" font-size="13" lengthAdjust="spacing" textLength="36.9307" x="874.97" y="923.1669">chess</text><text fill="#000000" font-family="sans-serif" font-size="13" lengthAdjust="spacing" textLength="28.939" x="913.4151" y="946.0632">0...1</text></g><!--link Pawn to Chess--><g class="link" data-entity-1="Pawn" data-entity-2="Chess" data-source-line="49" data-uid="lnk13" id="link_Pawn_Chess"><path codeLine="49" d="M1295.22,839.67 C1275.95,873.28 1258.3277,904.0272 1237.0877,941.0472" fill="none" id="Pawn-to-Chess" style="stroke:#181818;stroke-width:1;"/><polygon fill="none" points="1228.13,956.66,1242.292,944.0331,1231.8835,938.0613,1228.13,956.66" style="stroke:#181818;stroke-width:1;"/></g><!--link Rook to Chess--><g class="link" data-entity-1="Rook" data-entity-2="Chess" data-source-line="57" data-uid="lnk15" id="link_Rook_Chess"><path codeLine="57" d="M1480.95,823.3 C1466.5,840.92 1446.51,863.3 1425.97,880.1 C1391.31,908.44 1365.7816,925.7855 1327.8016,947.6955" fill="none" id="Rook-to-Chess" style="stroke:#181818;stroke-width:1;"/><polygon fill="none" points="1312.21,956.69,1330.7998,952.8927,1324.8034,942.4983,1312.21,956.69" style="stroke:#181818;stroke-width:1;"/></g><!--link Knight to Chess--><g class="link" data-entity-1="Knight" data-entity-2="Chess" data-source-line="64" data-uid="lnk17" id="link_Knight_Chess"><path codeLine="64" d="M1617.28,815.08 C1610.9,834.31 1598.79,862.75 1578.97,880.1 C1541.95,912.49 1513.4066,930.554 1467.1866,949.724" fill="none" id="Knight-to-Chess" style="stroke:#181818;stroke-width:1;"/><polygon fill="none" points="1450.56,956.62,1469.4853,955.2662,1464.888,944.1818,1450.56,956.62" style="stroke:#181818;stroke-width:1;"/></g><!--link Bishop to Chess--><g class="link" data-entity-1="Bishop" data-entity-2="Chess" data-source-line="71" data-uid="lnk19" id="link_Bishop_Chess"><path codeLine="71" d="M938.24,815.22 C945.59,833.76 958.37,861.02 975.97,880.1 C1003.28,909.71 1023.0263,926.0716 1056.9263,947.1616" fill="none" id="Bishop-to-Chess" style="stroke:#181818;stroke-width:1;"/><polygon fill="none" points="1072.21,956.67,1060.0958,942.0671,1053.7569,952.2562,1072.21,956.67" style="stroke:#181818;stroke-width:1;"/></g><!--link Queen to Chess--><g class="link" data-entity-1="Queen" data-entity-2="Chess" data-source-line="78" data-uid="lnk21" id="link_Queen_Chess"><path codeLine="78" d="M1027.61,815.33 C1035.56,833.21 1048.33,859.42 1062.97,880.1 C1081.98,906.95 1093.4243,920.9624 1115.6143,943.7924" fill="none" id="Queen-to-Chess" style="stroke:#181818;stroke-width:1;"/><polygon fill="none" points="1128.16,956.7,1119.9168,939.6105,1111.3118,947.9743,1128.16,956.7" style="stroke:#181818;stroke-width:1;"/></g><!--link King to Chess--><g class="link" data-entity-1="King" data-entity-2="Chess" data-source-line="86" data-uid="lnk23" id="link_King_Chess"><path codeLine="86" d="M1145.92,823.49 C1154.04,857.05 1163.4699,896.0141 1173.9799,939.4841" fill="none" id="King-to-Chess" style="stroke:#181818;stroke-width:1;"/><polygon fill="none" points="1178.21,956.98,1179.8119,938.0741,1168.1479,940.8941,1178.21,956.98" style="stroke:#181818;stroke-width:1;"/></g><!--reverse link Board to Square--><g class="link" data-entity-1="Board" data-entity-2="Square" data-source-line="108" data-uid="lnk25" id="link_Board_Square"><path codeLine="108" d="M606.97,642.85 C606.97,669.18 606.97,683.56 606.97,707.15" fill="none" id="Board-backto-Square" style="stroke:#181818;stroke-width:1;"/><polygon fill="#181818" points="606.97,630.85,602.97,636.85,606.97,642.85,610.97,636.85,606.97,630.85" style="stroke:#181818;stroke-width:1;"/><text fill="#000000" font-family="sans-serif" font-size="13" lengthAdjust="spacing" textLength="25.4604" x="607.97" y="673.4969">grid</text><text fill="#000000" font-family="sans-serif" font-size="13" lengthAdjust="spacing" textLength="23.042" x="583.0193" y="696.4284">8*8</text></g><!--reverse link Board to TextDisplay--><g class="link" data-entity-1="Board" data-entity-2="TextDisplay" data-source-line="109" data-uid="lnk26" id="link_Board_TextDisplay"><path codeLine="109" d="M716.1453,641.4457 C729.2853,666.3757 735.74,681.78 744.97,707.43 C775.88,793.29 770.61,819.13 777.97,910.1 C778.58,917.63 780.88,920.13 777.97,927.1 C770.79,944.29 758.59,959.89 745.39,973.12" fill="none" id="Board-backto-TextDisplay" style="stroke:#181818;stroke-width:1;"/><polygon fill="#181818" points="710.55,630.83,709.8091,638.0029,716.1453,641.4457,716.8862,634.2728,710.55,630.83" style="stroke:#181818;stroke-width:1;"/><text fill="#000000" font-family="sans-serif" font-size="13" lengthAdjust="spacing" textLength="13.3491" x="776.97" y="798.3269">td</text></g><!--reverse link Board to GraphDisplay--><g class="link" data-entity-1="Board" data-entity-2="GraphDisplay" data-source-line="110" data-uid="lnk27" id="link_Board_GraphDisplay"><path codeLine="110" d="M481.786,641.0184 C467.426,665.7584 460.52,681.4 450.97,707.43 C417.91,797.53 412.87,911.25 412.91,973.03" fill="none" id="Board-backto-GraphDisplay" style="stroke:#181818;stroke-width:1;"/><polygon fill="#181818" points="487.81,630.64,481.3385,633.8212,481.786,641.0184,488.2575,637.8372,487.81,630.64" style="stroke:#181818;stroke-width:1;"/><text fill="#000000" font-family="sans-serif" font-size="13" lengthAdjust="spacing" textLength="16.5039" x="451.97" y="798.3269">gd</text></g><!--link Bot to Board--><g class="link" data-entity-1="Bot" data-entity-2="Board" data-source-line="131" data-uid="lnk29" id="link_Bot_Board"><path codeLine="131" d="M606.97,234.52 C606.97,255.87 606.97,276.8 606.97,304.76" fill="none" id="Bot-to-Board" style="stroke:#181818;stroke-width:1;"/><polygon fill="#181818" points="606.97,310.76,610.97,301.76,606.97,305.76,602.97,301.76,606.97,310.76" style="stroke:#181818;stroke-width:1;"/><text fill="#000000" font-family="sans-serif" font-size="13" lengthAdjust="spacing" textLength="59.7695" x="607.97" y="277.1469">theBoard</text></g><!--link BotLevel1 to Bot--><g class="link" data-entity-1="BotLevel1" data-entity-2="Bot" data-source-line="136" data-uid="lnk31" id="link_BotLevel1_Bot"><path codeLine="136" d="M463.9,65.8 C487.35,85.75 510.16,105.1465 540.44,130.9065" fill="none" id="BotLevel1-to-Bot" style="stroke:#181818;stroke-width:1;"/><polygon fill="none" points="554.15,142.57,544.3278,126.3365,536.5522,135.4765,554.15,142.57" style="stroke:#181818;stroke-width:1;"/></g><!--link BotLevel2 to Bot--><g class="link" data-entity-1="BotLevel2" data-entity-2="Bot" data-source-line="141" data-uid="lnk33" id="link_BotLevel2_Bot"><path codeLine="141" d="M558.99,65.8 C566.86,85.75 572.5114,100.0631 582.6614,125.8231" fill="none" id="BotLevel2-to-Bot" style="stroke:#181818;stroke-width:1;"/><polygon fill="none" points="589.26,142.57,588.2437,123.6236,577.0791,128.0227,589.26,142.57" style="stroke:#181818;stroke-width:1;"/></g><!--link BotLevel3 to Bot--><g class="link" data-entity-1="BotLevel3" data-entity-2="Bot" data-source-line="146" data-uid="lnk35" id="link_BotLevel3_Bot"><path codeLine="146" d="M654.09,65.8 C646.37,85.75 640.837,100.0234 630.867,125.7834" fill="none" id="BotLevel3-to-Bot" style="stroke:#181818;stroke-width:1;"/><polygon fill="none" points="624.37,142.57,636.4625,127.9491,625.2715,123.6178,624.37,142.57" style="stroke:#181818;stroke-width:1;"/></g><!--link BotLevel4 to Bot--><g class="link" data-entity-1="BotLevel4" data-entity-2="Bot" data-source-line="151" data-uid="lnk37" id="link_BotLevel4_Bot"><path codeLine="151" d="M749.19,65.8 C725.88,85.75 703.2456,105.1062 673.1456,130.8662" fill="none" id="BotLevel4-to-Bot" style="stroke:#181818;stroke-width:1;"/><polygon fill="none" points="659.47,142.57,677.0468,135.4248,669.2443,126.3077,659.47,142.57" style="stroke:#181818;stroke-width:1;"/></g><!--SRC=[xLTRRzem57xFhpZgGmSiLBqzL8X5AgLgqRgMhMX8UwbCuXABr4uT1zPr_U_pBS4XePgclRKy0F7vV2wVZ-qlCOamX8I72VQo1Q4fukW1vfpbwOZ6c1E1Q8ZXqFCyJFC7E6C9u_0C7iZFz78qEVTXS7Lwzjc7wvl9vUZw0hmNpyi4pqCXqOn7X2A1uLdF-0Y42k1ivJo5B55JZFiOPzdaAItmOxIYFdocP1uB6OXaCKjz-CROmeUlESRAIEXSpGyJb6Lm-vWZNipkkWc4vT_Ifae9rRSToIbvpF5TAdXV9n90g7wiTO9_YY79qWGzGKT4TlI2epGkX-V5C6M2t3_PSSnRRR0LPrXetwrQiBP5SFp0bjY0sh8oMrAt6rHIw868eDzdimpp9UP1u08hMVLWtepiTBkmix-tjtUmOvYNK5Envw6PN4Carz3mQipFMwbRBvoGNxQI9U4YHmdC64k0PDzHGg8lihPMo6WcOC0GZs1Nn5Z_yztLck4vePKHJACsc8cVOB-CWDq8CejmqUozNN6MiemqUUCrRmyI_XVvRZei6r9rSCcRTQmuYDoX4D41FgTZEG5HeIqVP3x_cpVfWdEvuJS3l4BRrY9VzVKFf5NyoQLW988yZPGZjGaqZTtkxy1qMi6kEWcsi_jcENpnD35rlin9QXbxm_HO7ke4cIlcdI3BGvqWVUk-ysDeQDXWKesy7qXDEquHu_9LR3Zjgc1iYKF1UD_-69aI15AFagYkqHmr581e0BWgI3g9gkebvnnJCTRwp5eANIGp4zEO2AoNpemsG0O92XTrYBwxiXKHOJoswgzosIioXnojMfOcTvgvyWhnvzo5X19XecmOP76XdR1U1Lz6GTmtfLRWhhfSuskXD01dKoBY8Rv7UI9EEKTqZilWRX_VIXMMLYrDKROqSjMXwLkNceOsBCpoeDBzevNiIUTafrYVdkcPjNLJEZkccbWkczETrDoYYkOWq6nV54rgQTIl00H7BPFIRdNLk7prqIbeUMFZLJ8f0fgjb95V-4x0T7Gzl9dUtOv-dBjj4ybsCc4QezLJUQbB_04JPKoTMGUA3Rv5zgyLiuwYbhnL5S7AfteVCMJtrWxBtI-ky18d1pAoWTj7VLB8nqtWOHLuk1LuL0KURGKULu779V0F]--></g></svg>